<svg width="831" height="167" viewBox="0 0 831 167" fill="none" xmlns="http://www.w3.org/2000/svg">
<path d="M78.912 72V144H66.336V77.472L72.096 83.232H14.976L20.736 77.472V144H8.064V72H78.912ZM93.0615 89.664H105.542V108.576L104.966 110.496V121.44L105.542 124.8V159.84H93.0615V89.664ZM100.742 116.832C101.958 111.072 103.974 106.08 106.79 101.856C109.606 97.568 113.062 94.24 117.158 91.872C121.318 89.504 125.926 88.32 130.982 88.32C136.294 88.32 140.998 89.536 145.094 91.968C149.19 94.336 152.39 97.664 154.694 101.952C156.998 106.176 158.15 111.136 158.15 116.832C158.15 122.464 156.998 127.424 154.694 131.712C152.39 136 149.19 139.36 145.094 141.792C140.998 144.16 136.294 145.344 130.982 145.344C125.926 145.344 121.35 144.16 117.254 141.792C113.158 139.424 109.67 136.096 106.79 131.808C103.974 127.52 101.958 122.528 100.742 116.832ZM145.478 116.832C145.478 113.184 144.71 109.984 143.174 107.232C141.702 104.416 139.654 102.24 137.03 100.704C134.406 99.104 131.398 98.304 128.006 98.304C124.614 98.304 121.414 99.104 118.406 100.704C115.462 102.24 112.87 104.416 110.63 107.232C108.39 109.984 106.566 113.184 105.158 116.832C106.566 120.48 108.39 123.712 110.63 126.528C112.87 129.28 115.462 131.456 118.406 133.056C121.414 134.592 124.614 135.36 128.006 135.36C131.398 135.36 134.406 134.592 137.03 133.056C139.654 131.456 141.702 129.28 143.174 126.528C144.71 123.712 145.478 120.48 145.478 116.832ZM219.218 144L217.106 123.84L219.602 116.832L217.106 109.92L219.218 89.664H232.082L229.202 116.832L232.082 144H219.218ZM223.058 116.832C221.842 122.528 219.826 127.52 217.01 131.808C214.194 136.096 210.706 139.424 206.546 141.792C202.45 144.16 197.874 145.344 192.818 145.344C187.506 145.344 182.802 144.16 178.706 141.792C174.61 139.36 171.41 136 169.106 131.712C166.802 127.424 165.65 122.464 165.65 116.832C165.65 111.136 166.802 106.176 169.106 101.952C171.41 97.664 174.61 94.336 178.706 91.968C182.802 89.536 187.506 88.32 192.818 88.32C197.874 88.32 202.45 89.504 206.546 91.872C210.706 94.24 214.194 97.568 217.01 101.856C219.89 106.08 221.906 111.072 223.058 116.832ZM178.322 116.832C178.322 120.48 179.058 123.712 180.53 126.528C182.066 129.28 184.146 131.456 186.77 133.056C189.394 134.592 192.402 135.36 195.794 135.36C199.25 135.36 202.45 134.592 205.394 133.056C208.338 131.456 210.93 129.28 213.17 126.528C215.474 123.712 217.298 120.48 218.642 116.832C217.298 113.184 215.474 109.984 213.17 107.232C210.93 104.416 208.338 102.24 205.394 100.704C202.45 99.104 199.25 98.304 195.794 98.304C192.402 98.304 189.394 99.104 186.77 100.704C184.146 102.24 182.066 104.416 180.53 107.232C179.058 109.984 178.322 113.184 178.322 116.832ZM244.093 144V89.664H256.573V133.44L252.829 132.096L287.485 89.664H301.693L255.613 144H244.093ZM288.829 144L271.933 117.12L280.669 109.248L303.421 144H288.829ZM326.808 93.984H339.288V144H326.808V93.984ZM304.248 89.664H361.848V99.456H304.248V89.664ZM369.718 144V89.664H382.006V137.76L378.262 136.896L415.414 89.664H431.542V144H419.254V95.232L423.094 96.192L385.462 144H369.718ZM444.812 144V89.664H457.292V133.44L453.548 132.096L488.204 89.664H502.412L456.332 144H444.812ZM489.548 144L472.652 117.12L481.388 109.248L504.14 144H489.548ZM549.223 145.344C541.031 145.344 533.831 143.776 527.623 140.64C521.415 137.504 516.583 133.152 513.127 127.584C509.671 121.952 507.943 115.424 507.943 108C507.943 100.576 509.671 94.08 513.127 88.512C516.583 82.88 521.415 78.496 527.623 75.36C533.831 72.224 541.031 70.656 549.223 70.656C557.415 70.656 564.615 72.224 570.823 75.36C577.031 78.496 581.863 82.88 585.319 88.512C588.775 94.08 590.503 100.576 590.503 108C590.503 115.424 588.775 121.952 585.319 127.584C581.863 133.152 577.031 137.504 570.823 140.64C564.615 143.776 557.415 145.344 549.223 145.344ZM549.223 134.016C555.047 134.016 560.071 132.96 564.295 130.848C568.519 128.736 571.783 125.728 574.087 121.824C576.455 117.92 577.639 113.312 577.639 108C577.639 102.688 576.455 98.08 574.087 94.176C571.783 90.272 568.519 87.264 564.295 85.152C560.071 83.04 555.047 81.984 549.223 81.984C543.463 81.984 538.439 83.04 534.151 85.152C529.927 87.264 526.631 90.272 524.263 94.176C521.959 98.08 520.807 102.688 520.807 108C520.807 113.312 521.959 117.92 524.263 121.824C526.631 125.728 529.927 128.736 534.151 130.848C538.439 132.96 543.463 134.016 549.223 134.016ZM669.534 136.32L664.35 136.896V72H676.638V144H660.51L610.014 79.104L615.102 78.528V144H602.814V72H619.326L669.534 136.32Z" fill="black"/>
<rect x="685" y="24" width="24" height="120" fill="#D00000"/>
<rect x="777" y="28.2117" width="24" height="120" transform="rotate(-15 777 28.2117)" fill="#373737"/>
<rect x="717" y="54" width="24" height="90" fill="#3D48C2"/>
<rect x="749" width="24" height="144" fill="#0E8D0E"/>
</svg>
